<svg id="Capa_1" enable-background="new 0 0 512 512" height="512" viewBox="0 0 512 512" width="512" xmlns="http://www.w3.org/2000/svg"><g id="XMLID_400_"><path id="XMLID_418_" d="m325.231 476.468c-11.261 0-16.001-2.963-23.176-7.447-8.56-5.35-19.211-12.007-39.076-12.007-19.864 0-30.517 6.657-39.075 12.007-7.175 4.484-11.914 7.447-23.175 7.447s-16.001-2.963-23.176-7.447c-8.56-5.35-19.211-12.007-39.076-12.007v30c11.261 0 16.001 2.963 23.176 7.447 8.56 5.35 19.211 12.007 39.076 12.007 19.864 0 30.517-6.657 39.075-12.007 7.175-4.484 11.914-7.447 23.175-7.447s16.001 2.963 23.176 7.447c8.56 5.35 19.211 12.007 39.076 12.007s30.518-6.657 39.077-12.007c7.175-4.484 11.915-7.447 23.177-7.447v-30c-19.865 0-30.518 6.657-39.077 12.007-7.175 4.484-11.915 7.447-23.177 7.447z"/><path id="XMLID_420_" d="m99.401 371.981c8.56-5.35 19.211-12.007 39.076-12.007s30.517 6.657 39.076 12.007c7.175 4.484 11.915 7.447 23.176 7.447s16-2.963 23.175-7.447c8.559-5.35 19.211-12.007 39.075-12.007 19.865 0 30.517 6.657 39.076 12.007 7.175 4.484 11.915 7.447 23.176 7.447 11.262 0 16.002-2.963 23.177-7.447 8.56-5.35 19.212-12.007 39.077-12.007 19.866 0 30.519 6.657 39.078 12.007 6.356 3.972 10.811 6.746 19.571 7.329.111-1.476.181-2.958.181-4.447 0-28.845-20.812-52.904-48.205-57.993l-61.763-165.87h-32.013l61.389 164.862h-87.743v-164.861h-30v164.862h-87.74l61.389-164.862h-32.013l-61.763 165.87c-27.392 5.088-48.205 29.148-48.205 57.993 0 1.49.069 2.971.181 4.447 8.761-.583 13.216-3.357 19.572-7.33z"/><path id="XMLID_429_" d="m449.743 407.429c-11.263 0-16.004-2.963-23.18-7.447-8.56-5.35-19.212-12.007-39.078-12.007-19.865 0-30.518 6.657-39.077 12.007-7.175 4.484-11.915 7.447-23.177 7.447-11.261 0-16.001-2.963-23.176-7.447-8.56-5.35-19.211-12.007-39.076-12.007-19.864 0-30.517 6.657-39.075 12.007-7.175 4.484-11.914 7.447-23.175 7.447s-16.001-2.963-23.176-7.447c-8.56-5.35-19.211-12.007-39.076-12.007s-30.517 6.657-39.076 12.007c-7.175 4.484-11.915 7.447-23.176 7.447s-16-2.963-23.175-7.447c-8.559-5.35-19.211-12.007-39.075-12.007h-13.975v2 28h13.976c11.261 0 16 2.963 23.175 7.447 8.559 5.349 19.211 12.007 39.075 12.007 19.865 0 30.517-6.657 39.076-12.007 7.175-4.484 11.915-7.447 23.176-7.447s16.001 2.963 23.176 7.447c8.56 5.35 19.211 12.007 39.076 12.007 19.864 0 30.517-6.658 39.075-12.007 7.175-4.484 11.914-7.447 23.175-7.447s16.001 2.963 23.176 7.447c8.56 5.35 19.211 12.007 39.076 12.007s30.518-6.657 39.077-12.007c7.175-4.484 11.915-7.447 23.177-7.447 11.263 0 16.004 2.963 23.18 7.447 8.56 5.35 19.212 12.007 39.078 12.007 19.865 0 30.518-6.657 39.077-12.007 7.176-4.484 11.917-7.447 23.18-7.447v-28-2c-19.866 0-30.519 6.657-39.078 12.007-7.177 4.484-11.918 7.447-23.18 7.447z"/><path id="XMLID_437_" d="m262.969 33.891c10.611 0 20.742 2.147 29.985 6.021v-4.407c0-16.527-13.445-29.973-29.973-29.973-16.526 0-29.972 13.445-29.972 29.973v4.376c9.231-3.853 19.349-5.99 29.96-5.99z"/><path id="XMLID_438_" d="m214.942 121.001h96.11l-.059-9.379c-.162-26.319-21.706-47.731-48.025-47.731-26.481 0-48.026 21.545-48.026 48.026z"/></g></svg>