<?xml version="1.0" encoding="iso-8859-1"?>
<!-- Generator: Adobe Illustrator 19.0.0, SVG Export Plug-In . SVG Version: 6.00 Build 0)  -->
<svg version="1.1" id="Capa_1" xmlns="http://www.w3.org/2000/svg" xmlns:xlink="http://www.w3.org/1999/xlink" x="0px" y="0px"
	 viewBox="0 0 512 512" style="enable-background:new 0 0 512 512;" xml:space="preserve">
<g>
	<g>
		<path d="M507.439,432.583l-51.994-51.994c-24.959-24.959-58.947-39.791-94.125-41.291l-23.486-23.486
			c54.625-58.305,89.302-124.121,109.117-170.321c22.862-53.304,31.306-91.985,31.654-93.605c1.111-5.168-0.476-10.545-4.214-14.283
			c-3.738-3.738-9.115-5.326-14.283-4.214c-1.621,0.348-40.302,8.793-93.605,31.655c-46.2,19.815-112.016,54.492-170.321,109.116
			l-23.474-23.474c-1.499-35.18-16.336-69.171-41.296-94.13L79.417,4.561C76.497,1.641,72.536,0,68.406,0s-8.091,1.64-11.011,4.561
			L4.561,57.396c-6.082,6.082-6.082,15.941,0,22.022l51.995,51.995c24.959,24.959,58.946,39.79,94.125,41.29l23.479,23.48
			c-54.622,58.303-89.296,124.116-109.11,170.314c-22.862,53.304-31.307,91.985-31.655,93.605
			c-1.111,5.167,0.476,10.545,4.214,14.283c2.951,2.952,6.924,4.562,11.011,4.562c1.089,0,2.185-0.115,3.272-0.348
			c1.621-0.348,40.302-8.793,93.605-31.654c46.199-19.815,112.012-54.49,170.314-109.111l23.481,23.481
			c1.499,35.179,16.336,69.17,41.295,94.13l51.995,51.995c3.04,3.041,7.026,4.561,11.011,4.561c3.985,0,7.971-1.521,11.011-4.561
			l52.835-52.835c2.92-2.92,4.561-6.881,4.561-11.011S510.36,435.502,507.439,432.583z M231.924,330.187
			c-13.187,6.823-23.504,9.336-31.545,9.336c-9.656,0-16.03-3.622-20.158-7.751c-7.566-7.565-13.433-22.677,1.585-51.702
			c7.227-13.969,18.323-29.379,31.856-44.385l22.057,22.057c-9.333,10.484-17.324,21.161-23.092,30.943
			c-5.337,9.05-7.662,15.404-8.56,19.24c3.836-0.897,10.189-3.222,19.24-8.559c9.782-5.769,20.46-13.761,30.945-23.092
			l22.057,22.057C261.303,311.865,245.893,322.96,231.924,330.187z M298.332,276.311l-22.057-22.057
			c9.335-10.487,17.328-21.165,23.099-30.951c5.337-9.05,7.662-15.403,8.56-19.24c-3.836,0.897-10.189,3.223-19.24,8.56
			c-9.784,5.77-20.464,13.764-30.951,23.099l-22.057-22.057c15.008-13.536,30.421-24.635,44.392-31.862
			c29.023-15.018,44.137-9.153,51.702-1.585c7.566,7.565,13.433,22.677-1.585,51.702
			C322.966,245.89,311.869,261.302,298.332,276.311z"/>
	</g>
</g>
<g>
</g>
<g>
</g>
<g>
</g>
<g>
</g>
<g>
</g>
<g>
</g>
<g>
</g>
<g>
</g>
<g>
</g>
<g>
</g>
<g>
</g>
<g>
</g>
<g>
</g>
<g>
</g>
<g>
</g>
</svg>
